<?xml version="1.0" standalone="no"?><!DOCTYPE svg PUBLIC "-//W3C//DTD SVG 1.1//EN" "http://www.w3.org/Graphics/SVG/1.1/DTD/svg11.dtd"><svg t="1580997918136" class="icon" viewBox="0 0 1024 1024" version="1.1" xmlns="http://www.w3.org/2000/svg" p-id="1179" xmlns:xlink="http://www.w3.org/1999/xlink" width="200" height="200"><defs><style type="text/css"></style></defs><path d="M24.717241 512a490.813793 490.813793 0 1 0 981.627587 0 490.813793 490.813793 0 1 0-981.627587 0Z" fill="#000000" p-id="1180"></path><path d="M582.62069 526.124138l162.427586-162.427586c14.124138-14.124138 14.124138-38.841379 0-52.965518-14.124138-14.124138-38.841379-14.124138-52.965517 0L529.655172 473.158621l-162.427586-162.427587c-14.124138-14.124138-38.841379-14.124138-52.965517 0-14.124138 14.124138-14.124138 38.841379 0 52.965518l162.427586 162.427586-162.427586 162.427586c-14.124138 14.124138-14.124138 38.841379 0 52.965517s38.841379 14.124138 52.965517 0l162.427586-162.427586 162.427587 162.427586c14.124138 14.124138 38.841379 14.124138 52.965517 0 14.124138-14.124138 14.124138-38.841379 0-52.965517l-162.427586-162.427586z" fill="#e6e6e6" p-id="1181"></path></svg>