<?xml version="1.0" standalone="no"?><!DOCTYPE svg PUBLIC "-//W3C//DTD SVG 1.1//EN" "http://www.w3.org/Graphics/SVG/1.1/DTD/svg11.dtd"><svg t="1580995917663" class="icon" viewBox="0 0 1024 1024" version="1.1" xmlns="http://www.w3.org/2000/svg" p-id="2234" xmlns:xlink="http://www.w3.org/1999/xlink" width="200" height="200"><defs><style type="text/css"></style></defs><path d="M512.000227 0C229.223412 0 0.000227 229.223185 0.000227 512c0 282.742705 229.223185 512 512 512 282.742705 0 512-229.257295 512-512C1024.000227 229.223185 794.742932 0 512.000227 0z m0 979.485676C253.85126 979.485676 44.514551 770.183078 44.514551 512S253.85126 44.514324 512.000227 44.514324c258.183078 0 467.485676 209.302598 467.485677 467.485676S770.183305 979.485676 512.000227 979.485676z" fill="#040000" p-id="2235"></path><path d="M615.559988 558.663291c-23.399867 0-41.137375 21.080346-62.388275 21.080347-21.080346 0-113.622385-91.177615-113.622385-113.588275 0-22.44477 21.046236-33.462492 21.046236-56.760027 0-16.714191-62.388274-119.114191-88.00533-119.11419-25.582945 0-87.971219 45.674084-87.971219 88.00533 0 122.457029 225.846236 357.206129 367.234643 357.206129 39.022518 0 88.00533-41.137375 88.00533-88.00533 0.375217-17.532845-101.035576-88.823984-124.299-88.823984" fill="#040000" p-id="2236"></path></svg>